PathFileType	4	(X/Y/Z)	/Users/niels/Desktop/University/Third Semester/Perception and Action/Exam/Gymnastics Motion Tracking/Code for Gym Tracking/Analyzed Data/Webcam_Backflip/id2006_1_trajectory_Sports2D/id2006_1_trajectory_Sports2D_px_person00.trc
DataRate	CameraRate	NumFrames	NumMarkers	Units	OrigDataRate	OrigDataStartFrame	OrigNumFrames
29.797297297297295	29.797297297297295	11	22	m	29.797297297297295	74	148
Frame#	Time	Hip			RHip			RKnee			RAnkle			RBigToe			RSmallToe			RHeel			LHip			LKnee			LAnkle			LBigToe			LSmallToe			LHeel			Neck			Head			Nose			RShoulder			RElbow			RWrist			LShoulder			LElbow			LWrist		
		X1	Y1	Z1	X2	Y2	Z2	X3	Y3	Z3	X4	Y4	Z4	X5	Y5	Z5	X6	Y6	Z6	X7	Y7	Z7	X8	Y8	Z8	X9	Y9	Z9	X10	Y10	Z10	X11	Y11	Z11	X12	Y12	Z12	X13	Y13	Z13	X14	Y14	Z14	X15	Y15	Z15	X16	Y16	Z16	X17	Y17	Z17	X18	Y18	Z18	X19	Y19	Z19	X20	Y20	Z20	X21	Y21	Z21	X22	Y22	Z22
74	2.4834467120181407	0.8237497783415614	-0.7520006413469944	0.0	0.7687882587714321	-0.7454938071146044	0.0	0.7763219116628538	-1.0649889828408556	0.0	0.6279046729678629	-0.9746690862115754	0.0	0.4885078124999999	-1.2011458740234375	0.0			0.0	0.6023291015625	-0.9143344726562513	0.0	0.8672436936216931	-0.7728020369154033	0.0	0.8817960983712853	-1.0658428786175465	0.0	0.6655368088676781	-1.023240259289957	0.0			0.0	0.6565966796874975	-1.0058969726562481	0.0	0.6035196140698371	-0.9866703171928873	0.0	1.1223612966119856	-0.3320268270690354	0.0	1.2791459548118234	-0.1776299462249434	0.0	1.2327724408975298	-0.2759243613945975	0.0	1.0224752842587896	-0.3532604356288436	0.0	0.7652857512236535	-0.4700658093890671	0.0	0.5528266723958457	-0.6475654550696454	0.0	1.1243374541995093	-0.43450010955201723	0.0	0.9713753911297628	-0.5584312161754774	0.0	0.984976723161403	-0.7415099631449912	0.0
75	2.5170068027210886	0.8386024952048396	-0.7524540048646483	0.0	0.7828846540611156	-0.7455561637626011	0.0	0.7926755109606337	-1.0655349553312048	0.0	0.6316875541382532	-0.9713905610971034	0.0	0.4885078124999999	-1.2011458740234375	0.0			0.0	0.6023291015624993	-0.9143344726562529	0.0	0.8828039441533083	-0.774955231551639	0.0	0.9061872903212125	-1.0652547068292453	0.0	0.669672515894008	-1.0170045496440212	0.0			0.0	0.6565966796874964	-1.0058969726562472	0.0	0.6077001317698828	-0.9866901018918394	0.0	1.1195344453762441	-0.31879554152271544	0.0	1.2668959164147928	-0.15845417774344286	0.0	1.2271737105726577	-0.2573281160357258	0.0	1.0195008784221726	-0.3416358990784621	0.0	0.7632217742113938	-0.46894188131046866	0.0	0.5630367137741199	-0.6602624278794416	0.0	1.1241637440261443	-0.42317079348411246	0.0	0.9879874087938358	-0.5566100139469958	0.0	0.9835840587407533	-0.7413752476130864	0.0
76	2.5505668934240364	0.8552896319055633	-0.7537128123790724	0.0	0.7977745290221556	-0.7464011091497808	0.0	0.8104051997845769	-1.0665071919559541	0.0	0.638510421898763	-0.9654751179668885	0.0	0.4885078124999999	-1.2011458740234375	0.0			0.0	0.6023291015624984	-0.9143344726562549	0.0	0.9014263452941228	-0.7779377160994442	0.0	0.9348079433452524	-1.0649423287274677	0.0	0.6762129322340755	-1.0090101452111033	0.0			0.0	0.6565966796874959	-1.005896972656247	0.0	0.6152425034453489	-0.9867257968855446	0.0	1.1159029327202035	-0.30692679661377253	0.0	1.2539553769629876	-0.13979233261187876	0.0	1.2207310339074655	-0.24028669024254237	0.0	1.0162631849642636	-0.3313767905046092	0.0	0.7618428511020336	-0.46946753908951167	0.0	0.5770037114274363	-0.6762267458080417	0.0	1.1236116675696513	-0.4114223242664347	0.0	1.0051333005869587	-0.5571839149969794	0.0	0.9829022518668379	-0.7415413592501537	0.0
77	2.5841269841269843	0.8737580606647375	-0.7562223507704936	0.0	0.8134969541367719	-0.7485935287310805	0.0	0.8281581214115933	-1.0674898882420882	0.0	0.648237912465175	-0.9570383506110709	0.0	0.4885078124999999	-1.2011458740234375	0.0			0.0	0.6023291015624975	-0.9143344726562569	0.0	0.9229723585279633	-0.7815515132188462	0.0	0.9660233486976058	-1.064828752040934	0.0	0.6844604008467168	-1.000537200685693	0.0			0.0	0.6565966796874976	-1.0058969726562483	0.0	0.62599892030129	-0.9867767026547767	0.0	1.1120163468545952	-0.297142588102399	0.0	1.240947988702271	-0.12240519114418277	0.0	1.2137102714598984	-0.22523873059009408	0.0	1.0132119257358245	-0.3229244571865482	0.0	0.7621029841922207	-0.4710381200920219	0.0	0.5962503430003318	-0.6941813544109928	0.0	1.1232253444891702	-0.40039733661738236	0.0	1.0196910203599796	-0.5599947783809109	0.0	0.9843881288627614	-0.7423276402899538	0.0
78	2.617687074829932	0.8939501361610418	-0.7600348528043004	0.0	0.8303710885583407	-0.7524457555798171	0.0	0.8454782982843787	-1.0682698043066567	0.0	0.6592083547434997	-0.9475186258197066	0.0	0.4885078124999999	-1.2011458740234375	0.0			0.0	0.6023291015624973	-0.9143344726562574	0.0	0.9467925233797998	-0.7853737149796968	0.0	0.9982107832199069	-1.0648194256352908	0.0	0.6927233930694177	-0.9929346067425605	0.0			0.0	0.6565966796875032	-1.0058969726562526	0.0	0.6381348687611809	-0.9868341371889724	0.0	1.108584976995824	-0.2895886370116665	0.0	1.2284598708262333	-0.10702449717976915	0.0	1.2067126913718682	-0.21233813676805044	0.0	1.010965174922165	-0.3163655218660441	0.0	0.7651147903078732	-0.4727506401810619	0.0	0.6221577171699095	-0.712399101696241	0.0	1.123497349970652	-0.3906197521947346	0.0	1.0295091365727267	-0.5631928193980841	0.0	0.9901539381122857	-0.7441023243248828	0.0
79	2.65124716553288	0.91571449612546	-0.7648052864377146	0.0	0.848940363760734	-0.7578871192771124	0.0	0.8626999512639392	-1.0687538025927705	0.0	0.6689239330918079	-0.9390794741480585	0.0	0.4885078124999999	-1.2011458740234375	0.0			0.0	0.6023291015624987	-0.9143344726562541	0.0	0.9718866426911551	-0.7889569594596963	0.0	1.030011807315678	-1.0648573092272928	0.0	0.699302717300361	-0.9870945154722842	0.0			0.0	0.6565966796875148	-1.005896972656261	0.0	0.6488912856171494	-0.9868850429582107	0.0	1.1062220016462012	-0.2837970502954417	0.0	1.2169675908023692	-0.09395534185437597	0.0	1.200491711457398	-0.20136531461458815	0.0	1.0100640279529043	-0.31140151541970174	0.0	0.7718255610009342	-0.4737344534151171	0.0	0.6554159271061235	-0.729188520328651	0.0	1.124866479403491	-0.38192765733833417	0.0	1.0353719986643488	-0.5648756615501944	0.0	1.0025190320539423	-0.7471113928679446	0.0
80	2.684807256235828	0.9387695752953098	-0.7700058570156261	0.0	0.8697507622960907	-0.7644077131101142	0.0	0.8801164682126061	-1.0688008351136626	0.0	0.6757249779834026	-0.9331596717620384	0.0	0.4885078124999999	-1.2011458740234375	0.0			0.0	0.6023291015625032	-0.9143344726562436	0.0	0.9971352610006385	-0.7919828918744974	0.0	1.0601897915464746	-1.0649013669184277	0.0	0.7034884052924175	-0.983321325475696	0.0			0.0	0.6565966796875329	-1.0058969726562743	0.0	0.6564336572926729	-0.986920737951928	0.0	1.1053263868715013	-0.27888232917819766	0.0	1.2069546491649528	-0.0829837239938838	0.0	1.1957329698312886	-0.19180165774666316	0.0	1.010943167406044	-0.30749275572220947	0.0	0.7827562992522259	-0.4733424162703337	0.0	0.6955463023985108	-0.7432298273612803	0.0	1.1277415522768524	-0.3736920827297736	0.0	1.039799809712911	-0.5641286185171933	0.0	1.0227884594767134	-0.7511438934562987	0.0
81	2.7183673469387757	0.9627007184943465	-0.7750284189514233	0.0	0.8929439853493517	-0.7710258301294357	0.0	0.8975778363909904	-1.068184560110918	0.0	0.6794820531550613	-0.9298760156118295	0.0	0.4885078124999999	-1.2011458740234375	0.0			0.0	0.6023291015625121	-0.9143344726562223	0.0	1.0216173066334424	-0.7942502600462296	0.0	1.0877626686861965	-1.064868057007813	0.0	0.7055744557619463	-0.9813824540861693	0.0			0.0	0.6565966796875551	-1.0058969726562905	0.0	0.6606141749928064	-0.9869405226508964	0.0	1.1060438562287607	-0.27396505511095287	0.0	1.1988119213593744	-0.07365512932177425	0.0	1.1929074206294592	-0.18308906302009947	0.0	1.0139812240320352	-0.3039990962413481	0.0	0.7978860308054875	-0.47129369488856027	0.0	0.7407882885632303	-0.7537271096939685	0.0	1.1325084266407166	-0.36530339676835744	0.0	1.0451376046526264	-0.5611967275581833	0.0	1.0498367352797797	-0.7552873483573168	0.0
82	2.7519274376417235	0.9871695640139097	-0.7794639606721274	0.0	0.9182588049027927	-0.7769247508726153	0.0	0.9148379907022269	-1.0667988251944887	0.0	0.6809727122788226	-0.9285673865545458	0.0	0.4885078124999999	-1.2011458740234375	0.0			0.0	0.602329101562526	-0.9143344726561891	0.0	1.0449739403547682	-0.795898892644188	0.0	1.1123158068805963	-1.064681930480763	0.0	0.7062837615885806	-0.9807315107651352	0.0			0.0	0.6565966796875727	-1.0058969726563036	0.0	0.6622789221335196	-0.9869484012256168	0.0	1.1082526169894897	-0.2686108625421581	0.0	1.1926736240105085	-0.06553137339799901	0.0	1.1920954237069379	-0.17485327532660797	0.0	1.0193557901399548	-0.3003193327590114	0.0	0.8165384721449159	-0.4678913863530009	0.0	0.7887271244056486	-0.7605104821071533	0.0	1.1394867838154092	-0.35652985489886124	0.0	1.0528465616472442	-0.5569219057059328	0.0	1.0804254013898	-0.7583355513331375	0.0
83	2.7854875283446714	1.0120719307882755	-0.7833603151699874	0.0	0.9453744832130537	-0.7821453187807793	0.0	0.9322643470738053	-1.0649614031159016	0.0	0.6811503190893311	-0.92843216761861	0.0	0.4885078124999999	-1.2011458740234375	0.0			0.0	0.6023291015625429	-0.9143344726561486	0.0	1.0673650055047794	-0.7976095509478349	0.0	1.1341485256821542	-1.0643757274653436	0.0	0.7063245158606962	-0.9808011699655981	0.0			0.0	0.656596679687568	-1.0058969726563	0.0	0.6624559712695289	-0.9869492391275504	0.0	1.111569993260125	-0.26295479958556167	0.0	1.1883871148115754	-0.05833045078728299	0.0	1.192945236942228	-0.1670053481381194	0.0	1.0268306409270198	-0.2961437923624019	0.0	0.8375504999945216	-0.46402537965282487	0.0	0.8373541964912158	-0.7640406807180506	0.0	1.1483657145229877	-0.3475268697352918	0.0	1.0638961373632005	-0.5520233309468022	0.0	1.1113692639692443	-0.759611804664493	0.0
84	2.8190476190476192	1.0374279851380261	-0.7869163562406163	0.0	0.973844762503069	-0.7871045015959499	0.0	0.951162597309627	-1.0632936126148484	0.0	0.6807970788638167	-0.9288297275884888	0.0	0.4885078124999999	-1.2011458740234375	0.0			0.0	0.6023291015625561	-0.9143344726561172	0.0	1.0892226840735928	-0.8000176530517994	0.0	1.1541580702587704	-1.0640254009526435	0.0	0.7062026657670022	-0.9811680021883135	0.0			0.0	0.6565966796875118	-1.0058969726562588	0.0	0.6619711246997954	-0.9869469445448634	0.0	1.1155502602910154	-0.2575174909136066	0.0	1.185512917385003	-0.052031539849312074	0.0	1.194978843848957	-0.1597761977738457	0.0	1.035774050267525	-0.29166665978770756	0.0	0.8597701531289876	-0.46092014220149774	0.0	0.8856806289145819	-0.76508149507063	0.0	1.157929420724011	-0.3386715761866996	0.0	1.0792033892831814	-0.5468477699241123	0.0	1.140962321653721	-0.759214794572011	0.0
